<svg preserveAspectRatio="none" overflow="visible" style="display: block;" width="16" height="16" viewBox="0 0 16 16" fill="none" xmlns="http://www.w3.org/2000/svg">
<g id="Icon/16x16">
<path id="Phone" d="M4.39301 11.5518C6.92 14.0738 9.9382 16 12.3684 16C13.515 16 14.5119 15.5444 15.1637 14.8101C15.7827 14.1066 16 13.5873 16 13.1207C16 12.7636 15.7939 12.4027 15.2185 12.0383C12 10 12 10 12 10C11 10.5 10.4826 10.7431 9.74466 11.149C9.47102 11.2963 9.23364 11.2626 8.95224 11.149C7.29973 10.3774 5.60198 8.64912 4.79469 7.01948C4.66388 6.76373 4.6939 6.5789 4.82757 6.33794C5.5 5 5.5 5 6 4C5 2.4 4.7439 2 4.0461 0.92936C3.63531 0.355323 3.32127 0 2.85383 0C2.27868 0 1.59396 0.444662 1.09552 0.920277C0.379781 1.61276 0 2.57492 0 3.6483C0 6.09199 1.87884 9.04967 4.39301 11.5518Z" fill="black"/>
</g>
</svg>
